<?xml version="1.0" standalone="no"?>
<!DOCTYPE svg PUBLIC "-//W3C//DTD SVG 20010904//EN"
 "http://www.w3.org/TR/2001/REC-SVG-20010904/DTD/svg10.dtd">
<svg version="1.0" xmlns="http://www.w3.org/2000/svg"
 width="920.000000pt" height="267.000000pt" viewBox="0 0 920.000000 267.000000"
 preserveAspectRatio="xMidYMid meet">

<g transform="translate(0.000000,267.000000) scale(0.100000,-0.100000)"
fill="#000000" stroke="none">
<path d="M0 2047 l0 -617 25 -10 c70 -27 168 -42 270 -41 116 0 180 11 373 62
161 43 340 51 457 21 44 -11 88 -23 98 -27 16 -7 17 26 17 614 l0 620 -126 -2
-127 -2 -1 -65 -1 -65 -77 -3 -78 -3 0 71 0 71 -70 -3 -69 -2 -3 -66 -3 -65
-72 -3 -73 -3 0 71 0 71 -70 -3 -70 -2 0 -68 0 -68 -75 0 -75 0 0 70 0 70
-125 -3 -125 -2 0 -618z m620 313 l0 -39 -67 -21 c-76 -23 -103 -19 -103 15 0
23 -1 24 -35 9 -47 -19 -129 -18 -149 2 -22 21 -20 25 7 15 15 -6 45 -2 92 11
123 33 115 33 115 8 0 -25 16 -22 90 16 25 13 46 23 48 24 1 0 2 -18 2 -40z
m165 -109 c-68 -101 -68 -216 -1 -304 l32 -42 92 -3 c79 -2 92 -5 92 -20 0
-22 -11 -37 -32 -45 -10 -4 -18 -17 -18 -30 0 -13 -11 -46 -25 -72 -13 -27
-23 -50 -22 -50 1 -1 31 -9 67 -19 36 -9 71 -20 77 -24 6 -4 -55 -7 -135 -7
l-147 0 -140 -48 c-153 -54 -213 -64 -301 -51 l-59 8 75 7 c74 6 120 22 310
103 85 37 85 37 35 30 -27 -3 -94 -21 -147 -39 l-98 -33 -24 29 c-13 15 -32
51 -41 79 -10 30 -27 57 -41 67 -13 8 -24 22 -24 30 0 12 11 14 63 8 69 -8 90
-16 127 -44 14 -11 37 -23 53 -27 26 -6 27 -5 27 39 0 27 6 49 15 57 8 7 16
10 16 6 1 -3 3 -10 4 -16 1 -5 3 -28 4 -49 l1 -39 36 8 c50 11 84 46 84 85 0
88 -172 125 -249 53 l-24 -22 -23 30 c-34 42 -47 88 -42 150 3 30 3 54 2 54
-2 0 -10 -13 -19 -30 -19 -37 -19 -100 0 -147 8 -19 15 -36 15 -37 0 0 -22 -1
-48 -1 -63 0 -102 -25 -102 -66 0 -24 6 -33 33 -44 l32 -14 -30 -2 c-114 -8
-171 35 -133 100 12 22 21 26 57 24 41 -2 42 -1 27 16 -45 50 -40 144 12 198
22 24 41 32 107 43 77 13 82 15 125 63 l45 50 120 17 c66 10 132 18 147 19
l27 1 -34 -49z m153 -53 c-11 -29 -22 -85 -25 -124 l-6 -71 -68 1 c-77 1 -77
0 -36 81 16 33 137 165 151 165 2 0 -5 -24 -16 -52z"/>
<path d="M1885 2656 c-123 -39 -175 -104 -175 -220 0 -82 -12 -112 -51 -134
-90 -48 -115 -90 -128 -210 l-6 -67 -19 75 c-10 41 -38 161 -63 265 -77 326
-71 354 -72 -331 l-1 -610 68 22 c80 27 211 45 270 37 l42 -6 -6 34 c-25 151
-72 234 -178 311 -54 39 -32 35 40 -7 107 -64 207 -201 221 -304 4 -25 12 -42
22 -45 284 -82 482 -104 641 -72 47 10 91 21 98 25 8 5 -41 11 -109 14 -135 6
-258 26 -359 59 -67 21 -120 47 -120 59 0 3 30 8 68 11 95 7 142 34 181 102
17 30 40 60 51 66 11 6 53 15 93 19 40 5 86 15 102 24 58 30 99 92 114 173 l9
45 -35 -41 c-63 -73 -104 -83 -232 -54 -101 23 -130 15 -207 -57 -36 -33 -79
-66 -97 -74 -38 -16 -121 -23 -126 -12 -2 5 112 158 252 340 140 183 295 384
343 447 49 63 79 108 67 100 -12 -8 -210 -167 -440 -353 l-418 -338 -3 46 c-4
58 22 116 82 184 26 29 52 64 57 78 15 39 11 98 -11 153 -11 28 -20 70 -20 93
0 46 13 71 69 130 19 20 33 37 31 36 -3 0 -23 -6 -45 -13z"/>
<path d="M8815 2186 c-92 -43 -161 -143 -172 -251 -6 -52 -7 -55 -44 -67 -50
-17 -50 -32 1 -36 l40 -3 0 -174 c0 -188 -5 -205 -56 -205 -13 0 -24 -4 -24
-10 0 -6 55 -10 145 -10 90 0 145 4 145 10 0 6 -22 10 -49 10 -80 0 -81 3 -81
208 l0 177 60 -3 60 -4 0 31 0 31 -60 0 -60 0 0 73 c1 114 38 177 116 193 21
4 46 -3 89 -25 61 -31 78 -30 88 9 6 23 -16 43 -62 59 -50 16 -80 14 -136 -13z"/>
<path d="M4556 2154 c-32 -32 -13 -74 34 -74 30 0 50 16 50 41 0 23 -27 49
-50 49 -10 0 -26 -7 -34 -16z"/>
<path d="M6646 2151 c-23 -26 -13 -59 21 -67 33 -9 57 6 61 36 7 45 -51 66
-82 31z"/>
<path d="M2970 2141 c0 -5 18 -11 40 -15 24 -4 43 -14 50 -25 6 -12 10 -104
10 -229 0 -231 8 -279 59 -349 21 -29 51 -51 98 -75 65 -32 72 -33 183 -33
132 0 185 17 253 83 77 74 81 89 87 348 6 258 8 266 76 278 75 15 29 26 -101
26 -74 0 -135 -4 -135 -8 0 -4 20 -13 44 -20 65 -17 68 -32 64 -278 -3 -194
-5 -212 -25 -251 -43 -80 -120 -118 -238 -118 -102 0 -163 22 -209 76 -49 57
-56 101 -56 333 0 193 1 207 20 226 11 11 33 20 50 20 17 0 30 5 30 10 0 6
-57 10 -150 10 -82 0 -150 -4 -150 -9z"/>
<path d="M6931 1945 c-17 -30 -42 -62 -56 -71 -33 -21 -33 -43 0 -36 l25 4 0
-161 c0 -118 4 -171 14 -196 17 -39 68 -75 107 -75 33 0 89 37 108 72 21 37 6
47 -23 15 -30 -32 -68 -35 -96 -7 -28 28 -31 49 -28 203 l3 139 70 4 c66 5 85
14 85 42 0 8 -23 12 -80 12 l-80 0 0 55 c0 30 -4 55 -9 55 -5 0 -23 -25 -40
-55z"/>
<path d="M4551 1881 c-41 -14 -76 -31 -78 -37 -2 -6 13 -14 36 -18 22 -3 41
-13 45 -22 3 -8 6 -81 6 -160 0 -141 -1 -146 -25 -169 -13 -14 -36 -25 -50
-25 -14 0 -25 -4 -25 -10 0 -6 50 -10 130 -10 80 0 130 4 130 10 0 6 -8 10
-18 10 -10 0 -28 7 -40 16 -22 15 -22 20 -22 224 0 115 -3 211 -7 213 -5 3
-41 -7 -82 -22z"/>
<path d="M6641 1881 c-41 -15 -76 -32 -78 -37 -2 -6 16 -14 39 -20 l43 -9 3
-160 c3 -178 -1 -192 -56 -203 -67 -14 -28 -23 93 -23 120 0 155 8 97 23 -49
14 -52 26 -52 250 0 114 -3 208 -7 207 -5 0 -41 -12 -82 -28z"/>
<path d="M3912 1873 c-35 -14 -60 -28 -57 -32 4 -3 21 -11 38 -17 l32 -11 3
-161 c2 -151 1 -163 -18 -182 -11 -11 -29 -20 -40 -20 -11 0 -20 -4 -20 -10 0
-6 47 -10 120 -10 73 0 120 4 120 10 0 6 -11 10 -24 10 -50 0 -56 18 -56 183
l0 152 44 28 c64 40 102 49 141 33 49 -21 58 -62 53 -222 -5 -143 -10 -158
-59 -169 -64 -14 -23 -25 96 -25 77 0 125 4 125 10 0 6 -12 10 -27 10 -57 0
-58 5 -55 174 4 175 -3 212 -51 252 -44 37 -103 30 -197 -24 l-70 -40 0 44 c0
53 -6 54 -98 17z"/>
<path d="M5442 1889 c-40 -12 -101 -71 -126 -123 -23 -49 -31 -131 -17 -181
49 -182 224 -226 364 -93 51 48 43 59 -13 19 -80 -58 -156 -54 -224 12 -36 34
-46 52 -56 99 -20 101 -25 98 171 98 110 0 169 4 169 10 0 20 -48 105 -72 127
-45 42 -119 54 -196 32z m98 -24 c29 -15 50 -45 64 -92 7 -23 7 -23 -113 -23
-67 0 -121 2 -121 5 0 3 9 22 19 43 38 75 90 98 151 67z"/>
<path d="M5843 1877 c-34 -12 -65 -25 -69 -30 -4 -4 11 -15 34 -25 l42 -17 0
-161 c0 -143 -2 -163 -18 -177 -10 -10 -26 -17 -35 -17 -9 0 -17 -4 -17 -10 0
-6 52 -10 135 -10 83 0 135 4 135 10 0 6 -20 10 -44 10 -68 0 -76 18 -76 163
0 128 9 159 56 196 24 19 28 19 61 6 50 -21 68 -19 81 10 18 38 16 41 -32 55
-67 18 -85 11 -125 -48 l-36 -53 -3 60 c-2 40 -7 61 -15 60 -7 0 -40 -10 -74
-22z"/>
<path d="M6284 1886 c-45 -20 -74 -62 -74 -107 0 -57 18 -85 76 -124 116 -77
152 -131 120 -181 -45 -67 -135 -45 -173 44 -17 40 -31 35 -26 -10 11 -94 13
-99 34 -88 13 8 31 8 59 0 44 -12 81 -6 126 21 36 22 54 57 54 105 0 56 -25
90 -110 150 -44 31 -85 64 -90 74 -27 50 2 100 56 100 38 0 68 -21 84 -60 18
-44 30 -37 30 20 0 45 -3 52 -26 60 -36 14 -103 12 -140 -4z"/>
<path d="M8163 1884 c-52 -19 -117 -81 -139 -131 -9 -21 -16 -65 -16 -98 -1
-165 159 -280 323 -231 108 31 173 118 172 231 0 99 -36 162 -121 212 -55 32
-156 40 -219 17z m135 -28 c147 -77 160 -339 20 -402 -106 -48 -221 68 -222
226 -2 138 102 228 202 176z"/>
<path d="M4737 1883 c-14 -13 -6 -23 16 -23 13 0 31 -8 39 -17 13 -15 118
-244 181 -395 17 -40 43 -50 54 -20 3 9 42 98 85 197 75 170 115 235 145 235
7 0 13 7 13 15 0 12 -18 15 -101 15 -106 0 -127 -12 -59 -34 49 -15 50 -46 5
-148 -91 -204 -86 -194 -96 -175 -6 10 -37 81 -70 159 -64 152 -64 168 -8 168
19 0 29 5 29 15 0 12 -19 15 -113 15 -63 0 -117 -3 -120 -7z"/>
<path d="M7200 1875 c0 -8 9 -15 19 -15 37 0 61 -38 156 -240 l95 -205 -21
-55 c-33 -81 -54 -106 -101 -122 -45 -14 -59 -38 -38 -63 17 -20 64 -19 82 3
26 29 52 88 158 352 124 309 123 308 166 326 19 8 32 19 29 24 -9 15 -198 13
-193 -2 3 -7 19 -16 36 -20 27 -7 32 -13 32 -38 0 -28 -100 -300 -110 -300
-11 0 -142 299 -138 316 2 12 15 21 33 24 65 11 20 25 -90 28 -98 2 -115 0
-115 -13z"/>
<path d="M850 1353 c-14 -2 -108 -25 -210 -51 -184 -47 -186 -47 -345 -46
-131 0 -172 4 -227 21 l-68 20 0 -622 0 -622 102 -18 c71 -13 147 -19 243 -18
134 0 148 3 320 48 161 42 191 47 285 47 95 0 198 -18 273 -47 16 -7 17 26 17
613 l0 620 -38 15 c-92 37 -257 56 -352 40z m-279 -227 c-17 -20 -10 -66 11
-80 12 -7 27 -7 53 3 32 11 39 11 55 -4 13 -11 28 -15 44 -11 20 5 28 0 45
-29 23 -39 23 -39 -15 -25 -42 17 -166 14 -209 -4 -43 -18 -43 -32 -1 -16 15
5 60 10 99 10 171 0 317 -129 317 -280 0 -79 -33 -142 -114 -217 -66 -62 -74
-75 -56 -103 8 -12 10 -11 10 6 0 34 19 45 41 23 37 -37 134 -17 146 29 7 30
-5 53 -38 69 -23 12 -22 13 15 13 30 0 45 -7 72 -34 21 -21 34 -44 34 -59 0
-35 -44 -84 -82 -92 l-31 -7 23 -18 23 -17 -27 -7 c-29 -7 -90 1 -118 15 -22
12 -34 -7 -18 -26 11 -13 7 -15 -19 -15 -34 0 -81 37 -81 64 0 8 -5 18 -10 21
-20 12 -40 -17 -40 -56 0 -38 0 -38 -30 -28 -41 15 -80 64 -80 101 0 42 51 90
120 113 66 21 107 56 122 106 9 31 8 43 -8 75 -24 49 -64 77 -109 78 -34 1
-35 2 -29 31 7 33 8 39 6 73 -2 23 -3 22 -34 -10 -18 -18 -44 -41 -58 -49
l-25 -16 33 5 c18 2 35 8 38 13 10 17 22 9 17 -11 -3 -11 -25 -35 -50 -52 -72
-52 -100 -118 -78 -187 13 -42 -18 -18 -48 37 -26 48 -56 69 -58 40 0 -7 -1
-49 -2 -93 -3 -86 -14 -116 -53 -141 -20 -14 -30 -15 -49 -6 -14 7 -25 18 -25
26 0 23 30 47 50 41 13 -4 22 1 29 14 16 29 14 30 -19 18 -40 -15 -76 4 -108
58 -20 35 -22 51 -19 126 2 70 8 97 30 139 16 31 27 68 27 91 0 101 91 200
237 258 52 20 63 20 44 -3z m-86 -616 c42 -84 45 -127 10 -160 -30 -28 -44
-21 -21 12 22 31 20 59 -9 128 -24 56 -31 90 -20 90 3 0 21 -31 40 -70z"/>
<path d="M367 603 c-10 -10 -8 -41 2 -48 17 -10 33 31 17 44 -7 6 -16 8 -19 4z"/>
<path d="M1520 1345 c-36 -8 -84 -22 -107 -31 l-43 -16 0 -619 c0 -340 2 -619
4 -619 2 0 23 7 47 15 73 26 229 47 292 40 32 -3 138 -27 235 -52 175 -45 179
-46 332 -45 109 0 180 6 240 19 l85 18 3 621 2 621 -67 -20 c-56 -17 -97 -20
-233 -20 l-165 -1 -180 48 c-209 55 -333 66 -445 41z m969 -198 c24 -20 33
-58 20 -89 -6 -15 -15 -28 -20 -28 -5 0 -4 9 3 20 19 30 -1 55 -43 55 -25 0
-37 -6 -48 -26 -16 -29 -11 -59 18 -106 20 -31 21 -32 50 -17 27 13 34 13 58
0 l28 -14 -27 -7 c-40 -10 -49 -27 -53 -97 -3 -57 -6 -65 -39 -95 -34 -32 -66
-40 -100 -27 -14 5 -12 10 10 31 22 20 25 30 21 60 -3 19 -19 50 -34 70 -86
107 -85 104 -81 165 3 43 10 64 28 83 26 28 52 35 27 8 -25 -29 -30 -67 -13
-107 20 -48 27 -46 20 7 -6 52 9 83 56 115 27 18 43 22 70 17 19 -4 41 -12 49
-18z m-706 -47 c14 -11 28 -20 31 -20 4 0 2 9 -4 20 -10 18 -8 20 25 20 20 0
46 -5 58 -11 27 -14 67 -50 67 -60 0 -3 -10 -10 -22 -14 -22 -7 -21 -8 7 -12
33 -5 55 -27 55 -56 0 -15 -5 -18 -30 -12 -19 4 -30 3 -30 -4 0 -6 9 -11 19
-11 37 0 51 -12 51 -41 0 -25 -4 -29 -27 -29 l-28 -1 29 -15 c24 -13 27 -20
22 -45 -5 -25 -2 -31 21 -40 15 -5 76 -14 135 -18 95 -7 111 -11 134 -32 62
-58 71 -131 25 -213 -23 -42 -27 -56 -20 -83 5 -17 21 -41 35 -52 l26 -20 -41
-72 c-23 -39 -41 -75 -41 -80 0 -4 -9 -13 -20 -19 -11 -6 -20 -17 -20 -25 0
-11 -13 -15 -50 -15 -58 0 -60 16 -6 50 32 19 86 103 86 133 0 8 -18 33 -41
54 -22 21 -54 60 -70 86 -23 37 -34 47 -47 42 -36 -15 -187 -17 -227 -3 -34
12 -40 17 -38 41 2 32 -12 35 -27 7 -10 -18 -17 -20 -75 -14 -74 8 -79 2 -45
-53 11 -18 17 -40 13 -49 -5 -13 -2 -15 14 -10 24 8 38 -8 46 -51 8 -41 -10
-44 -50 -7 -15 14 -33 29 -39 32 -7 4 -26 41 -42 82 -35 88 -31 102 30 123 27
9 42 20 40 28 -9 36 -4 79 15 119 11 25 28 64 38 88 12 29 26 44 43 49 31 7
56 62 43 95 l-10 23 0 -25 c-1 -38 -27 -68 -65 -76 -33 -6 -70 -32 -78 -54 -2
-6 -11 -8 -22 -4 -17 7 -17 8 5 25 13 10 20 21 16 25 -4 4 -18 -3 -31 -15
l-24 -22 -6 27 c-6 22 -1 33 23 58 17 18 31 39 31 49 0 9 14 32 31 51 22 25
29 41 24 56 -8 25 5 26 38 0z m-133 -400 c33 -17 40 -26 40 -50 0 -37 -13 -38
-52 -5 -16 14 -34 23 -39 20 -4 -3 -14 -25 -20 -48 -7 -23 -19 -50 -28 -60
-13 -15 -13 -20 -2 -27 14 -8 10 -42 -9 -70 -9 -13 -11 -13 -20 0 -5 8 -12 33
-16 56 -5 34 0 52 30 112 29 58 55 90 74 92 1 0 21 -9 42 -20z m553 -363 c-13
-22 -126 -85 -140 -80 -13 5 -15 2 -11 -15 4 -16 0 -27 -15 -37 -34 -24 -47
-19 -37 14 15 53 30 70 91 102 33 18 65 41 71 52 10 20 11 20 28 -4 10 -13 16
-27 13 -32z"/>
<path d="M1725 1000 c-16 -18 -16 -18 4 -13 25 6 35 19 22 27 -4 3 -16 -3 -26
-14z"/>
<path d="M7140 1044 c-20 -11 -105 -13 -427 -14 -257 0 -404 4 -408 10 -3 6
-14 10 -24 10 -21 0 -26 -22 -37 -162 -6 -73 -4 -88 8 -88 9 0 18 20 26 58 7
31 23 71 36 87 l24 30 156 3 156 4 0 -422 0 -421 -25 -24 c-23 -24 -36 -27
-120 -30 -20 -1 -31 -7 -33 -18 -3 -16 17 -17 248 -17 234 0 251 1 248 18 -3
13 -17 18 -70 22 -53 4 -73 10 -90 28 l-23 23 0 417 0 417 153 0 154 0 27 -30
c16 -19 32 -53 40 -88 8 -39 17 -57 28 -57 12 0 14 8 9 43 -3 23 -8 79 -12
125 -4 45 -9 84 -13 86 -3 2 -17 -2 -31 -10z"/>
<path d="M5714 1029 c-89 -34 -153 -119 -154 -204 0 -58 39 -133 98 -187 28
-27 103 -82 167 -123 126 -82 198 -143 221 -186 18 -36 18 -112 0 -147 -47
-90 -178 -131 -290 -93 -55 19 -130 92 -155 151 -13 30 -28 50 -37 50 -12 0
-15 -6 -11 -22 3 -13 11 -63 18 -113 6 -50 15 -94 19 -98 4 -5 17 -3 27 4 17
10 36 8 109 -11 164 -41 301 -14 385 77 52 57 69 98 69 170 0 114 -56 180
-267 320 -151 100 -219 164 -229 219 -19 101 54 174 173 174 95 -1 179 -50
229 -136 42 -72 53 -59 38 44 -8 48 -14 92 -14 99 0 8 -14 10 -47 7 -31 -4
-64 0 -92 10 -62 23 -192 20 -257 -5z"/>
<path d="M7630 1034 c-140 -37 -279 -140 -338 -251 -51 -97 -65 -162 -60 -282
4 -94 8 -114 37 -174 59 -124 172 -216 326 -268 59 -20 90 -24 195 -23 109 0
133 3 192 26 152 57 250 142 313 271 56 115 70 236 40 352 -44 168 -187 300
-380 350 -75 19 -251 19 -325 -1z m272 -45 c139 -47 234 -152 277 -309 48
-170 12 -374 -85 -489 -143 -170 -432 -157 -595 27 -145 165 -166 439 -47 625
41 64 109 122 172 146 72 28 196 28 278 0z"/>
<path d="M3033 1031 c-69 -8 -57 -27 21 -33 49 -4 64 -10 83 -32 l23 -27 0
-395 0 -396 -29 -29 c-24 -24 -38 -29 -80 -30 -74 -2 -75 -2 -79 -21 -3 -17
16 -18 290 -18 161 0 322 5 358 11 160 26 261 139 261 292 0 30 -6 70 -14 90
-24 55 -84 114 -149 146 l-60 28 33 12 c150 52 185 233 66 338 -68 59 -111 67
-407 69 -146 1 -288 -1 -317 -5z m538 -42 c57 -25 94 -64 109 -117 26 -96 -5
-182 -81 -220 -41 -20 -62 -23 -175 -24 l-129 0 -3 190 -2 191 47 4 c85 8 183
-2 234 -24z m26 -428 c108 -51 158 -155 133 -274 -25 -121 -114 -186 -256
-187 -83 0 -136 18 -161 57 -15 23 -18 56 -21 230 l-4 203 124 0 c115 0 127
-2 185 -29z"/>
<path d="M3993 1033 c-47 -3 -63 -8 -63 -18 0 -10 11 -15 34 -15 46 0 94 -18
106 -40 6 -11 10 -177 10 -418 0 -385 -1 -400 -20 -425 -16 -20 -33 -27 -75
-32 -37 -5 -55 -12 -55 -21 0 -12 40 -14 225 -14 184 0 225 3 225 14 0 9 -19
16 -59 20 -96 11 -100 19 -101 214 -1 89 1 162 4 162 3 0 48 0 100 0 l95 0
176 -170 c192 -184 233 -212 345 -230 36 -5 170 -10 298 -10 225 0 232 1 232
20 0 17 -7 20 -39 20 -23 0 -48 8 -62 19 l-24 19 0 411 c0 406 0 411 21 432
14 13 39 23 68 26 30 4 46 10 46 19 0 11 -37 14 -195 14 -161 0 -195 -2 -195
-14 0 -9 15 -17 40 -21 26 -4 47 -16 60 -33 20 -25 21 -36 18 -430 l-3 -404
-24 -19 c-32 -26 -130 -26 -190 1 -54 25 -78 46 -277 241 l-162 158 44 21 c85
41 143 123 152 213 13 138 -88 250 -256 286 -49 10 -345 12 -499 4z m386 -23
c35 -6 80 -19 101 -30 49 -25 96 -80 109 -127 16 -56 13 -153 -5 -206 -16 -49
-75 -110 -121 -128 -42 -16 -174 -31 -210 -24 l-33 6 0 254 c0 193 3 255 13
258 21 9 79 7 146 -3z"/>
<path d="M8380 1016 c0 -9 17 -15 51 -18 34 -4 58 -12 72 -27 22 -21 22 -26
25 -425 3 -396 2 -403 -18 -429 -19 -23 -29 -27 -76 -27 -45 0 -54 -3 -54 -17
0 -17 23 -18 351 -17 l351 1 59 112 c68 126 61 150 -16 52 -79 -103 -84 -105
-271 -109 -139 -3 -163 -1 -177 13 -15 15 -17 58 -17 420 0 479 -8 447 114
453 56 3 76 8 76 18 0 12 -41 14 -235 14 -193 0 -235 -2 -235 -14z"/>
</g>
</svg>
